<svg id="Layer_1" data-name="Layer 1" xmlns="http://www.w3.org/2000/svg" viewBox="0 0 144 144"><defs><style>.cls-1{fill:#ad4d9c;}.cls-2{fill:#694e9f;stroke:#fff;}.cls-2,.cls-3,.cls-4{stroke-miterlimit:10;}.cls-3,.cls-4{fill:none;stroke-width:5px;}.cls-3{stroke:#ae4d9c;}.cls-4{stroke:#694e9f;}</style></defs><title>abouticon</title><path class="cls-1" d="M71.06,46.85C64.84,40.44,58.74,34.31,52.82,28c-3.85-4.1-4.48-8.86-2.07-13.23a11,11,0,0,1,19.34,0c.29.51.53,1,.89,1.76l.72-1.42a11,11,0,0,1,15.55-4.63,11.07,11.07,0,0,1,3.2,15.93,4.18,4.18,0,0,1-.36.48Z"/><path class="cls-2" d="M79.62,48c-3.43-6.26-6.83-12.27-10-18.39-2.09-4-1.57-7.78,1.22-10.63a8.8,8.8,0,0,1,14.9,4.13c.12.45.19.92.31,1.54l.86-.94a8.75,8.75,0,0,1,13-.26,8.85,8.85,0,0,1-.93,13,3.34,3.34,0,0,1-.38.29Z"/><circle class="cls-3" cx="49.33" cy="96.61" r="38.48"/><circle class="cls-4" cx="94.67" cy="96.61" r="38.48"/></svg>