<svg id="Layer_1" data-name="Layer 1" xmlns="http://www.w3.org/2000/svg" viewBox="0 0 590 210"><defs><style>.cls-1,.cls-2,.cls-3{fill:#fff;}.cls-2{stroke:#694e9f;}.cls-2,.cls-5{stroke-miterlimit:10;}.cls-3{font-size:52.11px;font-family:Aller, Aller;}.cls-4{letter-spacing:-0.01em;}.cls-5{fill:none;stroke:#fff;stroke-width:5px;}</style></defs><title>logo</title><path class="cls-1" d="M85.87,71.6c-7.18-7.4-14.23-14.47-21.05-21.74-4.44-4.74-5.17-10.23-2.39-15.27A12.14,12.14,0,0,1,73.6,28c5,0,8.68,2.36,11.16,6.66.34.58.61,1.2,1,2L86.61,35a12.64,12.64,0,0,1,18-5.34,12.78,12.78,0,0,1,3.69,18.39,4.82,4.82,0,0,1-.42.55Z"/><path class="cls-2" d="M95.75,73c-4-7.23-7.88-14.17-11.6-21.23-2.42-4.59-1.81-9,1.41-12.27a10.15,10.15,0,0,1,17.2,4.77c.13.52.21,1.06.36,1.78l1-1.09a10.1,10.1,0,0,1,15-.3,10.22,10.22,0,0,1-1.07,15,3.85,3.85,0,0,1-.44.34Z"/><text class="cls-3" transform="translate(179.97 140.95)"><tspan class="cls-4">Fr</tspan><tspan x="44.08" y="0">ee Matrimonial</tspan></text><circle class="cls-5" cx="60.78" cy="129.05" r="44.43"/><circle class="cls-5" cx="113.12" cy="129.05" r="44.43"/></svg>